<mxfile host="65bd71144e">
    <diagram id="l-wdlrvwp7PrL9_enoVZ" name="PÃ¡gina-1">
        <mxGraphModel dx="2175" dy="2727" grid="1" gridSize="10" guides="1" tooltips="1" connect="1" arrows="1" fold="1" page="1" pageScale="1" pageWidth="827" pageHeight="1169" background="#ffffff" math="0" shadow="0">
            <root>
                <mxCell id="0"/>
                <mxCell id="1" parent="0"/>
                <mxCell id="27" value="N&lt;br&gt;" style="edgeStyle=orthogonalEdgeStyle;html=1;entryX=0;entryY=0.5;entryDx=0;entryDy=0;labelBackgroundColor=#E5CCFF;strokeColor=#1A1A1A;strokeWidth=1;fontSize=13;fontColor=#1A1A1A;labelBorderColor=#6C8EBF;" parent="1" source="3" target="11" edge="1">
                    <mxGeometry relative="1" as="geometry"/>
                </mxCell>
                <mxCell id="122" style="edgeStyle=orthogonalEdgeStyle;html=1;entryX=1;entryY=0.5;entryDx=0;entryDy=0;labelBackgroundColor=#E5CCFF;labelBorderColor=#6C8EBF;strokeColor=#007FFF;strokeWidth=1;fontSize=11;fontColor=#000000;" parent="1" source="3" target="31" edge="1">
                    <mxGeometry relative="1" as="geometry"/>
                </mxCell>
                <mxCell id="125" style="edgeStyle=orthogonalEdgeStyle;html=1;entryX=1;entryY=0.5;entryDx=0;entryDy=0;labelBackgroundColor=#E5CCFF;labelBorderColor=#6C8EBF;strokeColor=#FF0080;strokeWidth=1;fontSize=11;fontColor=#000000;" parent="1" source="3" target="121" edge="1">
                    <mxGeometry relative="1" as="geometry"/>
                </mxCell>
                <mxCell id="126" style="edgeStyle=orthogonalEdgeStyle;html=1;entryX=1.017;entryY=0.867;entryDx=0;entryDy=0;entryPerimeter=0;labelBackgroundColor=#E5CCFF;labelBorderColor=#6C8EBF;strokeColor=#1A1A1A;strokeWidth=1;fontSize=11;fontColor=#000000;" parent="1" source="3" target="30" edge="1">
                    <mxGeometry relative="1" as="geometry"/>
                </mxCell>
                <mxCell id="127" style="edgeStyle=orthogonalEdgeStyle;html=1;entryX=0.983;entryY=0.767;entryDx=0;entryDy=0;entryPerimeter=0;labelBackgroundColor=#E5CCFF;labelBorderColor=#6C8EBF;strokeColor=#1A1A1A;strokeWidth=1;fontSize=11;fontColor=#000000;" parent="1" source="3" target="32" edge="1">
                    <mxGeometry relative="1" as="geometry"/>
                </mxCell>
                <mxCell id="128" style="edgeStyle=orthogonalEdgeStyle;html=1;entryX=0.5;entryY=1;entryDx=0;entryDy=0;labelBackgroundColor=#E5CCFF;labelBorderColor=#6C8EBF;strokeColor=#1A1A1A;strokeWidth=1;fontSize=11;fontColor=#000000;" parent="1" source="3" target="33" edge="1">
                    <mxGeometry relative="1" as="geometry"/>
                </mxCell>
                <mxCell id="3" value="&lt;span style=&quot;font-size: 13px;&quot;&gt;&lt;font style=&quot;font-size: 13px;&quot;&gt;usuario&lt;/font&gt;&lt;/span&gt;" style="whiteSpace=wrap;html=1;align=center;fillColor=#dae8fc;strokeColor=#6c8ebf;fontStyle=1;fontFamily=jetbrainsmono nerd font;fontSize=13;verticalAlign=middle;strokeWidth=2;fontColor=#1A1A1A;" parent="1" vertex="1">
                    <mxGeometry x="180" y="55" width="80" height="40" as="geometry"/>
                </mxCell>
                <mxCell id="56" style="edgeStyle=orthogonalEdgeStyle;html=1;entryX=0;entryY=0.5;entryDx=0;entryDy=0;labelBackgroundColor=#E5CCFF;labelBorderColor=#6C8EBF;strokeColor=#1A1A1A;strokeWidth=1;fontSize=11;fontColor=#1A1A1A;" parent="1" source="4" target="54" edge="1">
                    <mxGeometry relative="1" as="geometry"/>
                </mxCell>
                <mxCell id="57" style="edgeStyle=orthogonalEdgeStyle;html=1;entryX=0;entryY=0.5;entryDx=0;entryDy=0;labelBackgroundColor=#E5CCFF;labelBorderColor=#6C8EBF;strokeColor=#1A1A1A;strokeWidth=1;fontSize=11;fontColor=#1A1A1A;" parent="1" source="4" target="53" edge="1">
                    <mxGeometry relative="1" as="geometry"/>
                </mxCell>
                <mxCell id="58" style="edgeStyle=orthogonalEdgeStyle;html=1;entryX=0;entryY=0.5;entryDx=0;entryDy=0;labelBackgroundColor=#E5CCFF;labelBorderColor=#6C8EBF;strokeColor=#1A1A1A;strokeWidth=1;fontSize=11;fontColor=#1A1A1A;" parent="1" source="4" target="52" edge="1">
                    <mxGeometry relative="1" as="geometry"/>
                </mxCell>
                <mxCell id="59" style="edgeStyle=orthogonalEdgeStyle;html=1;entryX=0;entryY=0.5;entryDx=0;entryDy=0;labelBackgroundColor=#E5CCFF;labelBorderColor=#6C8EBF;strokeColor=#1A1A1A;strokeWidth=1;fontSize=11;fontColor=#1A1A1A;" parent="1" source="4" target="50" edge="1">
                    <mxGeometry relative="1" as="geometry"/>
                </mxCell>
                <mxCell id="60" style="html=1;entryX=1;entryY=0.5;entryDx=0;entryDy=0;labelBackgroundColor=#E5CCFF;labelBorderColor=#6C8EBF;strokeColor=#007FFF;strokeWidth=1;fontSize=11;fontColor=#1A1A1A;exitX=0.25;exitY=1;exitDx=0;exitDy=0;edgeStyle=orthogonalEdgeStyle;" parent="1" source="4" target="51" edge="1">
                    <mxGeometry relative="1" as="geometry"/>
                </mxCell>
                <mxCell id="82" value="N" style="edgeStyle=orthogonalEdgeStyle;html=1;entryX=0;entryY=0;entryDx=0;entryDy=0;labelBackgroundColor=#E5CCFF;labelBorderColor=#6C8EBF;strokeColor=#1A1A1A;strokeWidth=1;fontSize=11;fontColor=#1A1A1A;" parent="1" source="4" target="78" edge="1">
                    <mxGeometry relative="1" as="geometry"/>
                </mxCell>
                <mxCell id="116" value="1" style="edgeStyle=orthogonalEdgeStyle;html=1;exitX=0.75;exitY=0;exitDx=0;exitDy=0;entryX=0;entryY=0.5;entryDx=0;entryDy=0;labelBackgroundColor=#E5CCFF;labelBorderColor=#6C8EBF;strokeColor=#1A1A1A;strokeWidth=1;fontSize=11;fontColor=#1A1A1A;" parent="1" source="4" target="87" edge="1">
                    <mxGeometry relative="1" as="geometry"/>
                </mxCell>
                <mxCell id="187" value="" style="edgeStyle=orthogonalEdgeStyle;html=1;strokeColor=#FF0080;fontColor=#FF0080;" parent="1" source="4" target="186" edge="1">
                    <mxGeometry relative="1" as="geometry"/>
                </mxCell>
                <mxCell id="189" style="edgeStyle=orthogonalEdgeStyle;html=1;strokeColor=#1A1A1A;entryX=0;entryY=0.5;entryDx=0;entryDy=0;" edge="1" parent="1" source="4" target="188">
                    <mxGeometry relative="1" as="geometry"/>
                </mxCell>
                <mxCell id="4" value="&lt;span style=&quot;font-size: 13px;&quot;&gt;&lt;font style=&quot;font-size: 13px;&quot;&gt;cancha&lt;/font&gt;&lt;/span&gt;" style="whiteSpace=wrap;html=1;align=center;fillColor=#dae8fc;strokeColor=#6c8ebf;fontStyle=1;fontFamily=jetbrainsmono nerd font;fontSize=13;verticalAlign=middle;strokeWidth=2;fontColor=#1A1A1A;" parent="1" vertex="1">
                    <mxGeometry x="530" y="340" width="100" height="40" as="geometry"/>
                </mxCell>
                <mxCell id="109" value="N" style="edgeStyle=orthogonalEdgeStyle;html=1;labelBackgroundColor=#E5CCFF;labelBorderColor=#6C8EBF;strokeColor=#1A1A1A;strokeWidth=1;fontSize=11;fontColor=#1A1A1A;exitX=0.5;exitY=1;exitDx=0;exitDy=0;" parent="1" source="6" target="108" edge="1">
                    <mxGeometry relative="1" as="geometry"/>
                </mxCell>
                <mxCell id="130" style="edgeStyle=orthogonalEdgeStyle;html=1;entryX=1;entryY=0.5;entryDx=0;entryDy=0;labelBackgroundColor=#E5CCFF;labelBorderColor=#6C8EBF;strokeColor=#1A1A1A;strokeWidth=1;fontSize=11;fontColor=#000000;" parent="1" source="6" target="118" edge="1">
                    <mxGeometry relative="1" as="geometry"/>
                </mxCell>
                <mxCell id="131" style="edgeStyle=orthogonalEdgeStyle;html=1;labelBackgroundColor=#E5CCFF;labelBorderColor=#6C8EBF;strokeColor=#007FFF;strokeWidth=1;fontSize=11;fontColor=#000000;entryX=1;entryY=0.5;entryDx=0;entryDy=0;" parent="1" source="6" target="117" edge="1">
                    <mxGeometry relative="1" as="geometry">
                        <mxPoint x="-190" y="422.5" as="targetPoint"/>
                    </mxGeometry>
                </mxCell>
                <mxCell id="132" style="edgeStyle=orthogonalEdgeStyle;html=1;entryX=1;entryY=0.5;entryDx=0;entryDy=0;labelBackgroundColor=#E5CCFF;labelBorderColor=#6C8EBF;strokeColor=#1A1A1A;strokeWidth=1;fontSize=11;fontColor=#000000;" parent="1" source="6" target="119" edge="1">
                    <mxGeometry relative="1" as="geometry"/>
                </mxCell>
                <mxCell id="133" style="edgeStyle=orthogonalEdgeStyle;html=1;entryX=1;entryY=0.5;entryDx=0;entryDy=0;labelBackgroundColor=#E5CCFF;labelBorderColor=#6C8EBF;strokeColor=#1A1A1A;strokeWidth=1;fontSize=11;fontColor=#000000;" parent="1" source="6" target="120" edge="1">
                    <mxGeometry relative="1" as="geometry"/>
                </mxCell>
                <mxCell id="195" value="N" style="edgeStyle=orthogonalEdgeStyle;html=1;labelBackgroundColor=#FFCCE6;strokeColor=#1A1A1A;labelBorderColor=#1A1A1A;fontColor=#1A1A1A;" edge="1" parent="1" source="6" target="191">
                    <mxGeometry relative="1" as="geometry"/>
                </mxCell>
                <mxCell id="203" style="edgeStyle=orthogonalEdgeStyle;html=1;entryX=1;entryY=0.5;entryDx=0;entryDy=0;labelBackgroundColor=#FFCCE6;labelBorderColor=#1A1A1A;strokeColor=#007FFF;fontColor=#1A1A1A;" edge="1" parent="1" source="6" target="202">
                    <mxGeometry relative="1" as="geometry"/>
                </mxCell>
                <mxCell id="6" value="&lt;span style=&quot;font-size: 13px;&quot;&gt;&lt;font style=&quot;font-size: 13px;&quot;&gt;Equipo&lt;br style=&quot;font-size: 13px;&quot;&gt;&lt;/font&gt;&lt;/span&gt;" style="whiteSpace=wrap;html=1;align=center;fillColor=#dae8fc;strokeColor=#6c8ebf;fontStyle=1;fontFamily=jetbrainsmono nerd font;fontSize=13;verticalAlign=middle;strokeWidth=2;fontColor=#1A1A1A;" parent="1" vertex="1">
                    <mxGeometry x="-180" y="437.5" width="100" height="40" as="geometry"/>
                </mxCell>
                <mxCell id="28" value="N" style="edgeStyle=orthogonalEdgeStyle;html=1;labelBackgroundColor=#E5CCFF;labelBorderColor=#6C8EBF;strokeColor=#1A1A1A;strokeWidth=1;fontSize=13;fontColor=#1A1A1A;entryX=0.5;entryY=0;entryDx=0;entryDy=0;" parent="1" source="11" target="4" edge="1">
                    <mxGeometry relative="1" as="geometry"/>
                </mxCell>
                <mxCell id="69" style="edgeStyle=orthogonalEdgeStyle;html=1;entryX=1;entryY=1;entryDx=0;entryDy=0;labelBackgroundColor=#E5CCFF;labelBorderColor=#6C8EBF;strokeColor=#1A1A1A;strokeWidth=1;fontSize=11;fontColor=#1A1A1A;" parent="1" source="11" target="68" edge="1">
                    <mxGeometry relative="1" as="geometry"/>
                </mxCell>
                <mxCell id="70" style="edgeStyle=orthogonalEdgeStyle;html=1;entryX=0.5;entryY=1;entryDx=0;entryDy=0;labelBackgroundColor=#E5CCFF;labelBorderColor=#6C8EBF;strokeColor=#1A1A1A;strokeWidth=1;fontSize=11;fontColor=#1A1A1A;" parent="1" source="11" target="64" edge="1">
                    <mxGeometry relative="1" as="geometry"/>
                </mxCell>
                <mxCell id="71" style="edgeStyle=orthogonalEdgeStyle;html=1;entryX=0.252;entryY=0.939;entryDx=0;entryDy=0;entryPerimeter=0;labelBackgroundColor=#E5CCFF;labelBorderColor=#6C8EBF;strokeColor=#1A1A1A;strokeWidth=1;fontSize=11;fontColor=#1A1A1A;" parent="1" source="11" target="65" edge="1">
                    <mxGeometry relative="1" as="geometry"/>
                </mxCell>
                <mxCell id="72" style="edgeStyle=orthogonalEdgeStyle;html=1;entryX=1.014;entryY=0.772;entryDx=0;entryDy=0;entryPerimeter=0;labelBackgroundColor=#E5CCFF;labelBorderColor=#6C8EBF;strokeColor=#1A1A1A;strokeWidth=1;fontSize=11;fontColor=#1A1A1A;" parent="1" source="11" target="63" edge="1">
                    <mxGeometry relative="1" as="geometry"/>
                </mxCell>
                <mxCell id="179" style="edgeStyle=none;html=1;" parent="1" source="11" target="177" edge="1">
                    <mxGeometry relative="1" as="geometry"/>
                </mxCell>
                <mxCell id="180" style="edgeStyle=orthogonalEdgeStyle;html=1;strokeColor=#FF0080;entryX=0.5;entryY=1;entryDx=0;entryDy=0;" parent="1" source="11" target="177" edge="1">
                    <mxGeometry relative="1" as="geometry">
                        <mxPoint x="400" y="240" as="targetPoint"/>
                    </mxGeometry>
                </mxCell>
                <mxCell id="181" style="edgeStyle=orthogonalEdgeStyle;html=1;entryX=0.5;entryY=1;entryDx=0;entryDy=0;strokeColor=#FF0080;" parent="1" source="11" target="178" edge="1">
                    <mxGeometry relative="1" as="geometry"/>
                </mxCell>
                <mxCell id="11" value="&lt;span style=&quot;font-family: &amp;quot;jetbrainsmono nerd font&amp;quot;; font-weight: 700;&quot;&gt;reserva&lt;/span&gt;" style="shape=rhombus;perimeter=rhombusPerimeter;whiteSpace=wrap;html=1;align=center;fontSize=13;fillColor=#f8cecc;strokeColor=#b85450;strokeWidth=2;fontColor=#1A1A1A;" parent="1" vertex="1">
                    <mxGeometry x="462" y="180" width="100" height="60" as="geometry"/>
                </mxCell>
                <mxCell id="30" value="nombre" style="ellipse;whiteSpace=wrap;html=1;align=center;labelBackgroundColor=#FFFFFF;strokeWidth=1;fontSize=11;fontColor=#333333;fillColor=#f5f5f5;strokeColor=#666666;fontStyle=1" parent="1" vertex="1">
                    <mxGeometry x="80" y="1.25" width="60" height="30" as="geometry"/>
                </mxCell>
                <mxCell id="31" value="id" style="ellipse;whiteSpace=wrap;html=1;align=center;fontStyle=5;labelBackgroundColor=#FFFFFF;strokeWidth=1;fontSize=11;fontColor=#333333;fillColor=#f5f5f5;strokeColor=#007FFF;" parent="1" vertex="1">
                    <mxGeometry x="50" y="80" width="80" height="30" as="geometry"/>
                </mxCell>
                <mxCell id="32" value="email" style="ellipse;whiteSpace=wrap;html=1;align=center;labelBackgroundColor=#FFFFFF;strokeWidth=1;fontSize=11;fontColor=#333333;fillColor=#f5f5f5;strokeColor=#666666;fontStyle=1" parent="1" vertex="1">
                    <mxGeometry x="100" y="-38.75" width="60" height="30" as="geometry"/>
                </mxCell>
                <mxCell id="33" value="fone" style="ellipse;whiteSpace=wrap;html=1;align=center;labelBackgroundColor=#FFFFFF;strokeWidth=1;fontSize=11;fontColor=#333333;fillColor=#f5f5f5;strokeColor=#666666;fontStyle=1" parent="1" vertex="1">
                    <mxGeometry x="240" y="-38.75" width="60" height="30" as="geometry"/>
                </mxCell>
                <mxCell id="50" value="nombre" style="ellipse;whiteSpace=wrap;html=1;align=center;labelBackgroundColor=#FFFFFF;strokeWidth=1;fontSize=11;fontColor=#333333;fillColor=#f5f5f5;strokeColor=#666666;fontStyle=1" parent="1" vertex="1">
                    <mxGeometry x="680" y="380" width="70" height="30" as="geometry"/>
                </mxCell>
                <mxCell id="51" value="id_cancha" style="ellipse;whiteSpace=wrap;html=1;align=center;fontStyle=5;labelBackgroundColor=#FFFFFF;strokeWidth=1;fontSize=11;fontColor=#333333;fillColor=#f5f5f5;strokeColor=#007FFF;" parent="1" vertex="1">
                    <mxGeometry x="440" y="380" width="76" height="30" as="geometry"/>
                </mxCell>
                <mxCell id="52" value="direccion" style="ellipse;whiteSpace=wrap;html=1;align=center;labelBackgroundColor=#FFFFFF;strokeWidth=1;fontSize=11;fontColor=#333333;fillColor=#f5f5f5;strokeColor=#666666;fontStyle=1" parent="1" vertex="1">
                    <mxGeometry x="680" y="340" width="70" height="30" as="geometry"/>
                </mxCell>
                <mxCell id="53" value="horarios" style="ellipse;whiteSpace=wrap;html=1;align=center;labelBackgroundColor=#FFFFFF;strokeWidth=1;fontSize=11;fontColor=#333333;fillColor=#f5f5f5;strokeColor=#666666;fontStyle=1" parent="1" vertex="1">
                    <mxGeometry x="680" y="300" width="70" height="30" as="geometry"/>
                </mxCell>
                <mxCell id="54" value="costo_hs" style="ellipse;whiteSpace=wrap;html=1;align=center;labelBackgroundColor=#FFFFFF;strokeWidth=1;fontSize=11;fontColor=#333333;fillColor=#f5f5f5;strokeColor=#666666;fontStyle=1" parent="1" vertex="1">
                    <mxGeometry x="680" y="260" width="70" height="30" as="geometry"/>
                </mxCell>
                <mxCell id="63" value="fecha" style="ellipse;whiteSpace=wrap;html=1;align=center;labelBackgroundColor=#FFFFFF;strokeWidth=1;fontSize=11;fontColor=#333333;fillColor=#f5f5f5;strokeColor=#666666;fontStyle=1" parent="1" vertex="1">
                    <mxGeometry x="402" y="140" width="60" height="30" as="geometry"/>
                </mxCell>
                <mxCell id="64" value="costo&lt;span style=&quot;color: rgba(0, 0, 0, 0); font-family: monospace; font-size: 0px; font-weight: 400; text-align: start; background-color: rgb(42, 37, 47);&quot;&gt;%3CmxGraphModel%3E%3Croot%3E%3CmxCell%20id%3D%220%22%2F%3E%3CmxCell%20id%3D%221%22%20parent%3D%220%22%2F%3E%3CmxCell%20id%3D%222%22%20value%3D%22fecha%22%20style%3D%22ellipse%3BwhiteSpace%3Dwrap%3Bhtml%3D1%3Balign%3Dcenter%3BlabelBackgroundColor%3D%23FFFFFF%3BstrokeWidth%3D1%3BfontSize%3D11%3BfontColor%3D%23333333%3BfillColor%3D%23f5f5f5%3BstrokeColor%3D%23666666%3BfontStyle%3D1%22%20vertex%3D%221%22%20parent%3D%221%22%3E%3CmxGeometry%20x%3D%22384%22%20y%3D%22200%22%20width%3D%2260%22%20height%3D%2230%22%20as%3D%22geometry%22%2F%3E%3C%2FmxCell%3E%3C%2Froot%3E%3C%2FmxGraphModel%3E&lt;/span&gt;" style="ellipse;whiteSpace=wrap;html=1;align=center;labelBackgroundColor=#FFFFFF;strokeWidth=1;fontSize=11;fontColor=#333333;fillColor=#f5f5f5;strokeColor=#666666;fontStyle=1" parent="1" vertex="1">
                    <mxGeometry x="490" y="100" width="60" height="30" as="geometry"/>
                </mxCell>
                <mxCell id="65" value="id" style="ellipse;whiteSpace=wrap;html=1;align=center;fontStyle=5;labelBackgroundColor=#FFFFFF;strokeWidth=1;fontSize=11;fontColor=#333333;fillColor=#f5f5f5;strokeColor=#666666;" parent="1" vertex="1">
                    <mxGeometry x="562" y="110" width="58" height="30" as="geometry"/>
                </mxCell>
                <mxCell id="68" value="hora" style="ellipse;whiteSpace=wrap;html=1;align=center;labelBackgroundColor=#FFFFFF;strokeWidth=1;fontSize=11;fontColor=#333333;fillColor=#f5f5f5;strokeColor=#666666;fontStyle=1" parent="1" vertex="1">
                    <mxGeometry x="430" y="110" width="60" height="30" as="geometry"/>
                </mxCell>
                <mxCell id="79" style="edgeStyle=orthogonalEdgeStyle;html=1;entryX=0;entryY=0.5;entryDx=0;entryDy=0;labelBackgroundColor=#E5CCFF;labelBorderColor=#6C8EBF;strokeColor=#1A1A1A;strokeWidth=1;fontSize=11;fontColor=#1A1A1A;" parent="1" source="73" target="74" edge="1">
                    <mxGeometry relative="1" as="geometry"/>
                </mxCell>
                <mxCell id="80" style="edgeStyle=orthogonalEdgeStyle;html=1;entryX=0;entryY=0.5;entryDx=0;entryDy=0;labelBackgroundColor=#E5CCFF;labelBorderColor=#6C8EBF;strokeColor=#1A1A1A;strokeWidth=1;fontSize=11;fontColor=#1A1A1A;" parent="1" source="73" target="75" edge="1">
                    <mxGeometry relative="1" as="geometry"/>
                </mxCell>
                <mxCell id="81" style="edgeStyle=orthogonalEdgeStyle;html=1;entryX=0;entryY=0.5;entryDx=0;entryDy=0;labelBackgroundColor=#E5CCFF;labelBorderColor=#6C8EBF;strokeColor=#007FFF;strokeWidth=1;fontSize=11;fontColor=#1A1A1A;" parent="1" source="73" target="76" edge="1">
                    <mxGeometry relative="1" as="geometry"/>
                </mxCell>
                <mxCell id="85" style="edgeStyle=orthogonalEdgeStyle;html=1;entryX=0;entryY=0.5;entryDx=0;entryDy=0;labelBackgroundColor=#E5CCFF;labelBorderColor=#6C8EBF;strokeColor=#1A1A1A;strokeWidth=1;fontSize=11;fontColor=#1A1A1A;" parent="1" source="73" target="84" edge="1">
                    <mxGeometry relative="1" as="geometry"/>
                </mxCell>
                <mxCell id="114" value="1" style="edgeStyle=orthogonalEdgeStyle;html=1;exitX=0.75;exitY=0;exitDx=0;exitDy=0;labelBackgroundColor=#E5CCFF;labelBorderColor=#6C8EBF;strokeColor=#1A1A1A;strokeWidth=1;fontSize=11;fontColor=#1A1A1A;entryX=0;entryY=0.5;entryDx=0;entryDy=0;" parent="1" source="73" target="112" edge="1">
                    <mxGeometry relative="1" as="geometry"/>
                </mxCell>
                <mxCell id="73" value="local" style="whiteSpace=wrap;html=1;align=center;fillColor=#dae8fc;strokeColor=#6c8ebf;fontStyle=1;fontFamily=jetbrainsmono nerd font;fontSize=13;verticalAlign=middle;strokeWidth=2;fontColor=#1A1A1A;" parent="1" vertex="1">
                    <mxGeometry x="700" y="584.5" width="100" height="40" as="geometry"/>
                </mxCell>
                <mxCell id="74" value="nombre" style="ellipse;whiteSpace=wrap;html=1;align=center;labelBackgroundColor=#FFFFFF;strokeWidth=1;fontSize=11;fontColor=#333333;fillColor=#f5f5f5;strokeColor=#666666;fontStyle=1" parent="1" vertex="1">
                    <mxGeometry x="876" y="522.5" width="70" height="30" as="geometry"/>
                </mxCell>
                <mxCell id="75" value="direccion" style="ellipse;whiteSpace=wrap;html=1;align=center;labelBackgroundColor=#FFFFFF;strokeWidth=1;fontSize=11;fontColor=#333333;fillColor=#f5f5f5;strokeColor=#666666;fontStyle=1" parent="1" vertex="1">
                    <mxGeometry x="876" y="562.5" width="70" height="30" as="geometry"/>
                </mxCell>
                <mxCell id="76" value="id_local" style="ellipse;whiteSpace=wrap;html=1;align=center;fontStyle=5;labelBackgroundColor=#FFFFFF;strokeWidth=1;fontSize=11;fontColor=#333333;fillColor=#f5f5f5;strokeColor=#007FFF;" parent="1" vertex="1">
                    <mxGeometry x="870" y="607.5" width="76" height="30" as="geometry"/>
                </mxCell>
                <mxCell id="83" value="1" style="edgeStyle=orthogonalEdgeStyle;html=1;labelBackgroundColor=#E5CCFF;labelBorderColor=#6C8EBF;strokeColor=#1A1A1A;strokeWidth=1;fontSize=11;fontColor=#1A1A1A;" parent="1" source="78" target="73" edge="1">
                    <mxGeometry relative="1" as="geometry"/>
                </mxCell>
                <mxCell id="78" value="&lt;span style=&quot;font-family: &amp;quot;jetbrainsmono nerd font&amp;quot;; font-weight: 700;&quot;&gt;pertenece&lt;/span&gt;" style="shape=rhombus;perimeter=rhombusPerimeter;whiteSpace=wrap;html=1;align=center;fontSize=13;fillColor=#f8cecc;strokeColor=#b85450;strokeWidth=2;fontColor=#1A1A1A;" parent="1" vertex="1">
                    <mxGeometry x="590" y="485" width="110" height="65" as="geometry"/>
                </mxCell>
                <mxCell id="84" value="contacto" style="ellipse;whiteSpace=wrap;html=1;align=center;labelBackgroundColor=#FFFFFF;strokeWidth=1;fontSize=11;fontColor=#333333;fillColor=#f5f5f5;strokeColor=#666666;fontStyle=1" parent="1" vertex="1">
                    <mxGeometry x="870" y="647.5" width="70" height="30" as="geometry"/>
                </mxCell>
                <mxCell id="96" style="edgeStyle=orthogonalEdgeStyle;html=1;entryX=0.341;entryY=1;entryDx=0;entryDy=0;entryPerimeter=0;labelBackgroundColor=#E5CCFF;labelBorderColor=#6C8EBF;strokeColor=#007FFF;strokeWidth=1;fontSize=11;fontColor=#1A1A1A;" parent="1" source="86" target="95" edge="1">
                    <mxGeometry relative="1" as="geometry"/>
                </mxCell>
                <mxCell id="183" style="edgeStyle=orthogonalEdgeStyle;html=1;entryX=0.5;entryY=1;entryDx=0;entryDy=0;strokeColor=#FF0080;" parent="1" source="86" target="182" edge="1">
                    <mxGeometry relative="1" as="geometry"/>
                </mxCell>
                <mxCell id="86" value="galeria_canchas" style="whiteSpace=wrap;html=1;align=center;fillColor=#dae8fc;strokeColor=#6c8ebf;fontStyle=1;fontFamily=jetbrainsmono nerd font;fontSize=13;verticalAlign=middle;strokeWidth=2;fontColor=#1A1A1A;" parent="1" vertex="1">
                    <mxGeometry x="900" y="235" width="160" height="45" as="geometry"/>
                </mxCell>
                <mxCell id="92" value="N" style="edgeStyle=orthogonalEdgeStyle;html=1;entryX=0;entryY=0.5;entryDx=0;entryDy=0;labelBackgroundColor=#E5CCFF;labelBorderColor=#6C8EBF;strokeColor=#1A1A1A;strokeWidth=1;fontSize=11;fontColor=#1A1A1A;" parent="1" source="87" target="86" edge="1">
                    <mxGeometry relative="1" as="geometry"/>
                </mxCell>
                <mxCell id="87" value="&lt;span style=&quot;font-family: &amp;quot;jetbrainsmono nerd font&amp;quot;; font-weight: 700;&quot;&gt;posee&lt;/span&gt;" style="shape=rhombus;perimeter=rhombusPerimeter;whiteSpace=wrap;html=1;align=center;fontSize=13;fillColor=#f8cecc;strokeColor=#b85450;strokeWidth=2;fontColor=#1A1A1A;" parent="1" vertex="1">
                    <mxGeometry x="665" y="185" width="100" height="60" as="geometry"/>
                </mxCell>
                <mxCell id="95" value="id_galeriaCancha" style="ellipse;whiteSpace=wrap;html=1;align=center;fontStyle=5;labelBackgroundColor=#FFFFFF;strokeWidth=1;fontSize=11;fontColor=#333333;fillColor=#f5f5f5;strokeColor=#007FFF;" parent="1" vertex="1">
                    <mxGeometry x="990" y="170" width="126" height="30" as="geometry"/>
                </mxCell>
                <mxCell id="97" style="edgeStyle=orthogonalEdgeStyle;html=1;entryX=0.5;entryY=1;entryDx=0;entryDy=0;labelBackgroundColor=#E5CCFF;labelBorderColor=#6C8EBF;strokeColor=#007FFF;strokeWidth=1;fontSize=11;fontColor=#1A1A1A;exitX=0.5;exitY=0;exitDx=0;exitDy=0;" parent="1" source="98" target="99" edge="1">
                    <mxGeometry relative="1" as="geometry">
                        <mxPoint x="1160" y="390" as="sourcePoint"/>
                    </mxGeometry>
                </mxCell>
                <mxCell id="185" style="edgeStyle=orthogonalEdgeStyle;html=1;strokeColor=#FF0080;fontColor=#FF0080;" parent="1" source="98" target="184" edge="1">
                    <mxGeometry relative="1" as="geometry"/>
                </mxCell>
                <mxCell id="98" value="galeria_local" style="whiteSpace=wrap;html=1;align=center;fillColor=#dae8fc;strokeColor=#6c8ebf;fontStyle=1;fontFamily=jetbrainsmono nerd font;fontSize=13;verticalAlign=middle;strokeWidth=2;fontColor=#1A1A1A;" parent="1" vertex="1">
                    <mxGeometry x="940" y="395" width="160" height="45" as="geometry"/>
                </mxCell>
                <mxCell id="99" value="id_galeriaLocal" style="ellipse;whiteSpace=wrap;html=1;align=center;fontStyle=5;labelBackgroundColor=#FFFFFF;strokeWidth=1;fontSize=11;fontColor=#333333;fillColor=#f5f5f5;strokeColor=#007FFF;" parent="1" vertex="1">
                    <mxGeometry x="1040" y="340" width="126" height="30" as="geometry"/>
                </mxCell>
                <mxCell id="157" style="edgeStyle=orthogonalEdgeStyle;html=1;entryX=1;entryY=0.5;entryDx=0;entryDy=0;labelBackgroundColor=#E5CCFF;labelBorderColor=#6C8EBF;strokeColor=#1A1A1A;strokeWidth=1;fontSize=11;fontColor=#000000;elbow=vertical;" parent="1" source="101" target="148" edge="1">
                    <mxGeometry relative="1" as="geometry"/>
                </mxCell>
                <mxCell id="158" style="edgeStyle=orthogonalEdgeStyle;html=1;entryX=1;entryY=0.5;entryDx=0;entryDy=0;labelBackgroundColor=#E5CCFF;labelBorderColor=#6C8EBF;strokeColor=#1A1A1A;strokeWidth=1;fontSize=11;fontColor=#000000;elbow=vertical;" parent="1" source="101" target="150" edge="1">
                    <mxGeometry relative="1" as="geometry"/>
                </mxCell>
                <mxCell id="159" style="edgeStyle=orthogonalEdgeStyle;html=1;entryX=1;entryY=0.5;entryDx=0;entryDy=0;labelBackgroundColor=#E5CCFF;labelBorderColor=#6C8EBF;strokeColor=#1A1A1A;strokeWidth=1;fontSize=11;fontColor=#000000;elbow=vertical;" parent="1" source="101" target="149" edge="1">
                    <mxGeometry relative="1" as="geometry"/>
                </mxCell>
                <mxCell id="160" style="edgeStyle=orthogonalEdgeStyle;html=1;entryX=1;entryY=0.5;entryDx=0;entryDy=0;labelBackgroundColor=#E5CCFF;labelBorderColor=#6C8EBF;strokeColor=#1A1A1A;strokeWidth=1;fontSize=11;fontColor=#000000;elbow=vertical;" parent="1" source="101" target="152" edge="1">
                    <mxGeometry relative="1" as="geometry"/>
                </mxCell>
                <mxCell id="165" value="N" style="edgeStyle=orthogonalEdgeStyle;html=1;entryX=0;entryY=0.5;entryDx=0;entryDy=0;labelBackgroundColor=#E5CCFF;labelBorderColor=#6C8EBF;strokeColor=#1A1A1A;strokeWidth=1;fontSize=11;fontColor=#000000;elbow=vertical;" parent="1" source="101" target="164" edge="1">
                    <mxGeometry relative="1" as="geometry"/>
                </mxCell>
                <mxCell id="169" style="edgeStyle=orthogonalEdgeStyle;html=1;labelBackgroundColor=#E5CCFF;labelBorderColor=#6C8EBF;strokeColor=#007FFF;strokeWidth=1;fontSize=11;fontColor=#000000;elbow=vertical;" parent="1" source="101" target="168" edge="1">
                    <mxGeometry relative="1" as="geometry"/>
                </mxCell>
                <mxCell id="205" style="edgeStyle=orthogonalEdgeStyle;html=1;labelBackgroundColor=#FFCCE6;labelBorderColor=#1A1A1A;strokeColor=#007FFF;fontColor=#1A1A1A;" edge="1" parent="1" source="101" target="204">
                    <mxGeometry relative="1" as="geometry"/>
                </mxCell>
                <mxCell id="101" value="&lt;span style=&quot;font-size: 13px;&quot;&gt;&lt;font style=&quot;font-size: 13px;&quot;&gt;Torneo&lt;br style=&quot;font-size: 13px;&quot;&gt;&lt;/font&gt;&lt;/span&gt;" style="whiteSpace=wrap;html=1;align=center;fillColor=#dae8fc;strokeColor=#6c8ebf;fontStyle=1;fontFamily=jetbrainsmono nerd font;fontSize=13;verticalAlign=middle;strokeWidth=2;fontColor=#1A1A1A;" parent="1" vertex="1">
                    <mxGeometry x="180" y="920" width="100" height="40" as="geometry"/>
                </mxCell>
                <mxCell id="107" value="N" style="edgeStyle=orthogonalEdgeStyle;html=1;labelBackgroundColor=#E5CCFF;labelBorderColor=#6C8EBF;strokeColor=#1A1A1A;strokeWidth=1;fontSize=11;fontColor=#1A1A1A;exitX=0.5;exitY=1;exitDx=0;exitDy=0;" parent="1" source="104" target="6" edge="1">
                    <mxGeometry relative="1" as="geometry"/>
                </mxCell>
                <mxCell id="173" style="edgeStyle=orthogonalEdgeStyle;html=1;entryX=1;entryY=0.5;entryDx=0;entryDy=0;labelBackgroundColor=#E5CCFF;labelBorderColor=#6C8EBF;strokeColor=#007FFF;strokeWidth=1;fontSize=11;fontColor=#000000;elbow=vertical;" parent="1" source="104" target="170" edge="1">
                    <mxGeometry relative="1" as="geometry"/>
                </mxCell>
                <mxCell id="174" style="edgeStyle=orthogonalEdgeStyle;html=1;entryX=1;entryY=0.5;entryDx=0;entryDy=0;labelBackgroundColor=#E5CCFF;labelBorderColor=#6C8EBF;strokeColor=#FF0080;strokeWidth=1;fontSize=11;fontColor=#000000;elbow=vertical;" parent="1" source="104" target="171" edge="1">
                    <mxGeometry relative="1" as="geometry"/>
                </mxCell>
                <mxCell id="175" style="edgeStyle=orthogonalEdgeStyle;html=1;entryX=1;entryY=0.5;entryDx=0;entryDy=0;labelBackgroundColor=#E5CCFF;labelBorderColor=#6C8EBF;strokeColor=#FF0080;strokeWidth=1;fontSize=11;fontColor=#000000;elbow=vertical;" parent="1" source="104" target="172" edge="1">
                    <mxGeometry relative="1" as="geometry"/>
                </mxCell>
                <mxCell id="176" value="N" style="edgeStyle=orthogonalEdgeStyle;html=1;entryX=0.5;entryY=1;entryDx=0;entryDy=0;labelBackgroundColor=#E5CCFF;labelBorderColor=#6C8EBF;strokeColor=#1A1A1A;strokeWidth=1;fontSize=11;fontColor=#000000;elbow=vertical;exitX=1;exitY=0.5;exitDx=0;exitDy=0;" parent="1" source="104" target="3" edge="1">
                    <mxGeometry relative="1" as="geometry"/>
                </mxCell>
                <mxCell id="104" value="&lt;font face=&quot;jetbrainsmono nerd font&quot;&gt;&lt;b&gt;integranEquipo&lt;/b&gt;&lt;/font&gt;" style="shape=rhombus;perimeter=rhombusPerimeter;whiteSpace=wrap;html=1;align=center;fontSize=13;fillColor=#f8cecc;strokeColor=#b85450;strokeWidth=2;fontColor=#1A1A1A;" parent="1" vertex="1">
                    <mxGeometry y="230" width="140" height="80" as="geometry"/>
                </mxCell>
                <mxCell id="111" value="N" style="edgeStyle=orthogonalEdgeStyle;html=1;entryX=0.5;entryY=0;entryDx=0;entryDy=0;labelBackgroundColor=#E5CCFF;labelBorderColor=#6C8EBF;strokeColor=#1A1A1A;strokeWidth=1;fontSize=11;fontColor=#1A1A1A;" parent="1" source="108" target="101" edge="1">
                    <mxGeometry relative="1" as="geometry"/>
                </mxCell>
                <mxCell id="145" style="edgeStyle=orthogonalEdgeStyle;html=1;entryX=1;entryY=0.5;entryDx=0;entryDy=0;labelBackgroundColor=#E5CCFF;labelBorderColor=#6C8EBF;strokeColor=#FF0080;strokeWidth=1;fontSize=11;fontColor=#000000;elbow=vertical;" parent="1" source="108" target="135" edge="1">
                    <mxGeometry relative="1" as="geometry"/>
                </mxCell>
                <mxCell id="146" style="edgeStyle=orthogonalEdgeStyle;html=1;entryX=1;entryY=0.5;entryDx=0;entryDy=0;labelBackgroundColor=#E5CCFF;labelBorderColor=#6C8EBF;strokeColor=#FF0080;strokeWidth=1;fontSize=11;fontColor=#000000;elbow=vertical;" parent="1" source="108" target="136" edge="1">
                    <mxGeometry relative="1" as="geometry"/>
                </mxCell>
                <mxCell id="147" style="edgeStyle=orthogonalEdgeStyle;html=1;entryX=1;entryY=0.5;entryDx=0;entryDy=0;labelBackgroundColor=#E5CCFF;labelBorderColor=#6C8EBF;strokeColor=#007FFF;strokeWidth=1;fontSize=11;fontColor=#000000;elbow=vertical;" parent="1" source="108" target="134" edge="1">
                    <mxGeometry relative="1" as="geometry"/>
                </mxCell>
                <mxCell id="108" value="&lt;span style=&quot;font-family: &amp;quot;jetbrainsmono nerd font&amp;quot;; font-weight: 700;&quot;&gt;inscripcion&lt;/span&gt;" style="shape=rhombus;perimeter=rhombusPerimeter;whiteSpace=wrap;html=1;align=center;fontSize=13;fillColor=#f8cecc;strokeColor=#b85450;strokeWidth=2;fontColor=#1A1A1A;" parent="1" vertex="1">
                    <mxGeometry x="-60" y="710.62" width="120" height="83.75" as="geometry"/>
                </mxCell>
                <mxCell id="115" value="N" style="edgeStyle=orthogonalEdgeStyle;html=1;entryX=0.5;entryY=1;entryDx=0;entryDy=0;labelBackgroundColor=#E5CCFF;labelBorderColor=#6C8EBF;strokeColor=#1A1A1A;strokeWidth=1;fontSize=11;fontColor=#1A1A1A;" parent="1" source="112" target="98" edge="1">
                    <mxGeometry relative="1" as="geometry"/>
                </mxCell>
                <mxCell id="112" value="&lt;span style=&quot;font-family: &amp;quot;jetbrainsmono nerd font&amp;quot;; font-weight: 700;&quot;&gt;posee&lt;/span&gt;" style="shape=rhombus;perimeter=rhombusPerimeter;whiteSpace=wrap;html=1;align=center;fontSize=13;fillColor=#f8cecc;strokeColor=#b85450;strokeWidth=2;fontColor=#1A1A1A;" parent="1" vertex="1">
                    <mxGeometry x="827" y="435" width="100" height="60" as="geometry"/>
                </mxCell>
                <mxCell id="117" value="id_equipo" style="ellipse;whiteSpace=wrap;html=1;align=center;fontStyle=5;labelBackgroundColor=#FFFFFF;strokeWidth=1;fontSize=11;fontColor=#333333;fillColor=#f5f5f5;strokeColor=#007FFF;" parent="1" vertex="1">
                    <mxGeometry x="-310" y="395" width="80" height="30" as="geometry"/>
                </mxCell>
                <mxCell id="118" value="nombre" style="ellipse;whiteSpace=wrap;html=1;align=center;labelBackgroundColor=#FFFFFF;strokeWidth=1;fontSize=11;fontColor=#333333;fillColor=#f5f5f5;strokeColor=#666666;fontStyle=1" parent="1" vertex="1">
                    <mxGeometry x="-290" y="427.5" width="60" height="30" as="geometry"/>
                </mxCell>
                <mxCell id="119" value="divicion" style="ellipse;whiteSpace=wrap;html=1;align=center;labelBackgroundColor=#FFFFFF;strokeWidth=1;fontSize=11;fontColor=#333333;fillColor=#f5f5f5;strokeColor=#666666;fontStyle=1" parent="1" vertex="1">
                    <mxGeometry x="-290" y="465" width="60" height="27.5" as="geometry"/>
                </mxCell>
                <mxCell id="120" value="contacto" style="ellipse;whiteSpace=wrap;html=1;align=center;labelBackgroundColor=#FFFFFF;strokeWidth=1;fontSize=11;fontColor=#333333;fillColor=#f5f5f5;strokeColor=#666666;fontStyle=1" parent="1" vertex="1">
                    <mxGeometry x="-290" y="495" width="60" height="30" as="geometry"/>
                </mxCell>
                <mxCell id="121" value="&lt;span style=&quot;border-bottom: 1px dotted&quot;&gt;&lt;font size=&quot;1&quot; style=&quot;&quot;&gt;&lt;span style=&quot;font-size: 11px;&quot;&gt;id_equipo&lt;/span&gt;&lt;/font&gt;&lt;br&gt;&lt;/span&gt;" style="ellipse;whiteSpace=wrap;html=1;align=center;labelBackgroundColor=#FFFFFF;strokeWidth=1;fontSize=11;fontColor=#000000;fillColor=#FFFFFF;gradientColor=none;strokeColor=#FF0080;fontStyle=0" parent="1" vertex="1">
                    <mxGeometry x="55" y="36.25" width="70" height="35" as="geometry"/>
                </mxCell>
                <mxCell id="134" value="id_inscripcion" style="ellipse;whiteSpace=wrap;html=1;align=center;fontStyle=5;labelBackgroundColor=#FFFFFF;strokeWidth=1;fontSize=11;fontColor=#000000;fillColor=#f5f5f5;strokeColor=#007FFF;" parent="1" vertex="1">
                    <mxGeometry x="-210" y="694.68" width="90" height="40" as="geometry"/>
                </mxCell>
                <mxCell id="135" value="&lt;span style=&quot;border-bottom: 1px dotted; font-size: 11px;&quot;&gt;&lt;font style=&quot;font-size: 11px;&quot;&gt;&lt;span style=&quot;font-size: 11px;&quot;&gt;id_equipo&lt;/span&gt;&lt;/font&gt;&lt;br style=&quot;font-size: 11px;&quot;&gt;&lt;/span&gt;" style="ellipse;whiteSpace=wrap;html=1;align=center;labelBackgroundColor=#FFFFFF;strokeWidth=1;fontSize=11;fontColor=#000000;fillColor=#FFFFFF;gradientColor=none;strokeColor=#FF0080;fontStyle=1" parent="1" vertex="1">
                    <mxGeometry x="-190" y="735.3" width="70" height="32.5" as="geometry"/>
                </mxCell>
                <mxCell id="136" value="&lt;span style=&quot;border-bottom: 1px dotted; font-size: 11px;&quot;&gt;&lt;font style=&quot;font-size: 11px;&quot;&gt;&lt;span style=&quot;font-size: 11px;&quot;&gt;id_torneo&lt;/span&gt;&lt;/font&gt;&lt;br style=&quot;font-size: 11px;&quot;&gt;&lt;/span&gt;" style="ellipse;whiteSpace=wrap;html=1;align=center;labelBackgroundColor=#FFFFFF;strokeWidth=1;fontSize=11;fontColor=#000000;fillColor=#FFFFFF;gradientColor=none;strokeColor=#FF0080;fontStyle=1" parent="1" vertex="1">
                    <mxGeometry x="-190" y="777.8" width="70" height="32.5" as="geometry"/>
                </mxCell>
                <mxCell id="148" value="id" style="ellipse;whiteSpace=wrap;html=1;align=center;fontStyle=5;labelBackgroundColor=#FFFFFF;strokeWidth=1;fontSize=11;fontColor=#000000;fillColor=#f5f5f5;strokeColor=#666666;" parent="1" vertex="1">
                    <mxGeometry x="80" y="870" width="60" height="30" as="geometry"/>
                </mxCell>
                <mxCell id="149" value="nombre" style="ellipse;whiteSpace=wrap;html=1;align=center;labelBackgroundColor=#FFFFFF;strokeWidth=1;fontSize=11;fontColor=#333333;fillColor=#f5f5f5;strokeColor=#000000;fontStyle=1;labelBorderColor=default;" parent="1" vertex="1">
                    <mxGeometry x="80" y="950" width="60" height="30" as="geometry"/>
                </mxCell>
                <mxCell id="150" value="fecha inicio" style="ellipse;whiteSpace=wrap;html=1;align=center;labelBackgroundColor=#FFFFFF;strokeWidth=1;fontSize=11;fontColor=#333333;fillColor=#f5f5f5;strokeColor=#000000;fontStyle=1;labelBorderColor=default;" parent="1" vertex="1">
                    <mxGeometry x="50" y="910" width="90" height="30" as="geometry"/>
                </mxCell>
                <mxCell id="152" value="cupos" style="ellipse;whiteSpace=wrap;html=1;align=center;labelBackgroundColor=#FFFFFF;strokeWidth=1;fontSize=11;fontColor=#333333;fillColor=#f5f5f5;strokeColor=#000000;fontStyle=1;labelBorderColor=default;" parent="1" vertex="1">
                    <mxGeometry x="80" y="990" width="60" height="30" as="geometry"/>
                </mxCell>
                <mxCell id="167" value="1" style="edgeStyle=orthogonalEdgeStyle;html=1;labelBackgroundColor=#E5CCFF;labelBorderColor=#6C8EBF;strokeColor=#1A1A1A;strokeWidth=1;fontSize=11;fontColor=#000000;elbow=vertical;" parent="1" source="164" target="73" edge="1">
                    <mxGeometry relative="1" as="geometry"/>
                </mxCell>
                <mxCell id="164" value="&lt;span style=&quot;font-family: &amp;quot;jetbrainsmono nerd font&amp;quot;; font-weight: 700;&quot;&gt;realiza&lt;/span&gt;" style="shape=rhombus;perimeter=rhombusPerimeter;whiteSpace=wrap;html=1;align=center;fontSize=13;fillColor=#f8cecc;strokeColor=#b85450;strokeWidth=2;fontColor=#1A1A1A;" parent="1" vertex="1">
                    <mxGeometry x="536" y="780" width="110" height="65" as="geometry"/>
                </mxCell>
                <mxCell id="168" value="&lt;span style=&quot;border-bottom: 1px dotted; font-size: 11px;&quot;&gt;&lt;font style=&quot;font-size: 11px;&quot;&gt;&lt;span style=&quot;font-size: 11px;&quot;&gt;id_local&lt;/span&gt;&lt;/font&gt;&lt;br style=&quot;font-size: 11px;&quot;&gt;&lt;/span&gt;" style="ellipse;whiteSpace=wrap;html=1;align=center;labelBackgroundColor=#FFFFFF;strokeWidth=1;fontSize=11;fontColor=#000000;fillColor=#FFFFFF;gradientColor=none;strokeColor=#007FFF;fontStyle=1" parent="1" vertex="1">
                    <mxGeometry x="145" y="1020" width="70" height="32.5" as="geometry"/>
                </mxCell>
                <mxCell id="170" value="id" style="ellipse;whiteSpace=wrap;html=1;align=center;fontStyle=5;labelBackgroundColor=#FFFFFF;strokeWidth=1;fontSize=11;fontColor=#333333;fillColor=#f5f5f5;strokeColor=#007FFF;" parent="1" vertex="1">
                    <mxGeometry x="-100" y="190" width="60" height="30" as="geometry"/>
                </mxCell>
                <mxCell id="171" value="&lt;span style=&quot;border-bottom: 1px dotted&quot;&gt;&lt;font size=&quot;1&quot; style=&quot;&quot;&gt;&lt;span style=&quot;font-size: 11px;&quot;&gt;id:usuario&lt;/span&gt;&lt;/font&gt;&lt;br&gt;&lt;/span&gt;" style="ellipse;whiteSpace=wrap;html=1;align=center;labelBackgroundColor=#FFFFFF;strokeWidth=1;fontSize=11;fontColor=#000000;fillColor=#FFFFFF;gradientColor=none;strokeColor=#FF0080;fontStyle=0" parent="1" vertex="1">
                    <mxGeometry x="-110" y="230" width="70" height="30" as="geometry"/>
                </mxCell>
                <mxCell id="172" value="&lt;span style=&quot;border-bottom: 1px dotted&quot;&gt;&lt;font size=&quot;1&quot; style=&quot;&quot;&gt;&lt;span style=&quot;font-size: 11px;&quot;&gt;id:equipo&lt;/span&gt;&lt;/font&gt;&lt;br&gt;&lt;/span&gt;" style="ellipse;whiteSpace=wrap;html=1;align=center;labelBackgroundColor=#FFFFFF;strokeWidth=1;fontSize=11;fontColor=#000000;fillColor=#FFFFFF;gradientColor=none;strokeColor=#FF0080;fontStyle=0" parent="1" vertex="1">
                    <mxGeometry x="-110" y="270" width="70" height="30" as="geometry"/>
                </mxCell>
                <mxCell id="177" value="&lt;span style=&quot;border-bottom: 1px dotted&quot;&gt;&lt;font size=&quot;1&quot; style=&quot;&quot;&gt;&lt;span style=&quot;font-size: 11px;&quot;&gt;id:cancha&lt;/span&gt;&lt;/font&gt;&lt;br&gt;&lt;/span&gt;" style="ellipse;whiteSpace=wrap;html=1;align=center;labelBackgroundColor=#FFFFFF;strokeWidth=1;fontSize=11;fontColor=#000000;fillColor=#FFFFFF;gradientColor=none;strokeColor=#FF0080;fontStyle=0" parent="1" vertex="1">
                    <mxGeometry x="450" y="65" width="70" height="30" as="geometry"/>
                </mxCell>
                <mxCell id="178" value="&lt;span style=&quot;border-bottom: 1px dotted&quot;&gt;&lt;font size=&quot;1&quot; style=&quot;&quot;&gt;&lt;span style=&quot;font-size: 11px;&quot;&gt;id:usuario&lt;/span&gt;&lt;/font&gt;&lt;br&gt;&lt;/span&gt;" style="ellipse;whiteSpace=wrap;html=1;align=center;labelBackgroundColor=#FFFFFF;strokeWidth=1;fontSize=11;fontColor=#000000;fillColor=#FFFFFF;gradientColor=none;strokeColor=#FF0080;fontStyle=0" parent="1" vertex="1">
                    <mxGeometry x="530" y="70" width="70" height="30" as="geometry"/>
                </mxCell>
                <mxCell id="182" value="&lt;span style=&quot;border-bottom: 1px dotted&quot;&gt;&lt;font size=&quot;1&quot; style=&quot;&quot;&gt;&lt;span style=&quot;font-size: 11px;&quot;&gt;id:usuario&lt;/span&gt;&lt;/font&gt;&lt;br&gt;&lt;/span&gt;" style="ellipse;whiteSpace=wrap;html=1;align=center;labelBackgroundColor=#FFFFFF;strokeWidth=1;fontSize=11;fontColor=#000000;fillColor=#FFFFFF;gradientColor=none;strokeColor=#FF0080;fontStyle=0" parent="1" vertex="1">
                    <mxGeometry x="910" y="170" width="70" height="30" as="geometry"/>
                </mxCell>
                <mxCell id="184" value="&lt;span style=&quot;border-bottom: 1px dotted&quot;&gt;&lt;font size=&quot;1&quot; style=&quot;&quot;&gt;&lt;span style=&quot;font-size: 11px;&quot;&gt;id:local&lt;/span&gt;&lt;/font&gt;&lt;br&gt;&lt;/span&gt;" style="ellipse;whiteSpace=wrap;html=1;align=center;labelBackgroundColor=#FFFFFF;strokeWidth=1;fontSize=11;fontColor=#000000;fillColor=#FFFFFF;gradientColor=none;strokeColor=#FF0080;fontStyle=0" parent="1" vertex="1">
                    <mxGeometry x="945" y="340" width="70" height="30" as="geometry"/>
                </mxCell>
                <mxCell id="186" value="&lt;span style=&quot;border-bottom: 1px dotted&quot;&gt;&lt;font size=&quot;1&quot; style=&quot;&quot;&gt;&lt;span style=&quot;font-size: 11px;&quot;&gt;id:local&lt;/span&gt;&lt;/font&gt;&lt;br&gt;&lt;/span&gt;" style="ellipse;whiteSpace=wrap;html=1;align=center;labelBackgroundColor=#FFFFFF;strokeWidth=1;fontSize=11;fontColor=#000000;fillColor=#FFFFFF;gradientColor=none;strokeColor=#FF0080;fontStyle=0" parent="1" vertex="1">
                    <mxGeometry x="430" y="340" width="70" height="30" as="geometry"/>
                </mxCell>
                <mxCell id="188" value="costo&lt;span style=&quot;color: rgba(0, 0, 0, 0); font-family: monospace; font-size: 0px; font-weight: 400; text-align: start; background-color: rgb(42, 37, 47);&quot;&gt;%3CmxGraphModel%3E%3Croot%3E%3CmxCell%20id%3D%220%22%2F%3E%3CmxCell%20id%3D%221%22%20parent%3D%220%22%2F%3E%3CmxCell%20id%3D%222%22%20value%3D%22fecha%22%20style%3D%22ellipse%3BwhiteSpace%3Dwrap%3Bhtml%3D1%3Balign%3Dcenter%3BlabelBackgroundColor%3D%23FFFFFF%3BstrokeWidth%3D1%3BfontSize%3D11%3BfontColor%3D%23333333%3BfillColor%3D%23f5f5f5%3BstrokeColor%3D%23666666%3BfontStyle%3D1%22%20vertex%3D%221%22%20parent%3D%221%22%3E%3CmxGeometry%20x%3D%22384%22%20y%3D%22200%22%20width%3D%2260%22%20height%3D%2230%22%20as%3D%22geometry%22%2F%3E%3C%2FmxCell%3E%3C%2Froot%3E%3C%2FmxGraphModel%3E&lt;/span&gt;" style="ellipse;whiteSpace=wrap;html=1;align=center;labelBackgroundColor=#FFFFFF;strokeWidth=1;fontSize=11;fontColor=#333333;fillColor=#f5f5f5;strokeColor=#666666;fontStyle=1" vertex="1" parent="1">
                    <mxGeometry x="680" y="422.5" width="60" height="30" as="geometry"/>
                </mxCell>
                <mxCell id="200" style="edgeStyle=orthogonalEdgeStyle;html=1;exitX=0.75;exitY=0;exitDx=0;exitDy=0;entryX=0.238;entryY=1.05;entryDx=0;entryDy=0;entryPerimeter=0;labelBackgroundColor=#FFCCE6;labelBorderColor=#1A1A1A;strokeColor=#007FFF;fontColor=#1A1A1A;" edge="1" parent="1" source="190" target="197">
                    <mxGeometry relative="1" as="geometry"/>
                </mxCell>
                <mxCell id="201" style="edgeStyle=orthogonalEdgeStyle;html=1;exitX=0.75;exitY=0;exitDx=0;exitDy=0;labelBackgroundColor=#FFCCE6;labelBorderColor=#1A1A1A;strokeColor=#1A1A1A;fontColor=#1A1A1A;" edge="1" parent="1" source="190" target="199">
                    <mxGeometry relative="1" as="geometry"/>
                </mxCell>
                <mxCell id="190" value="&lt;span style=&quot;font-size: 13px;&quot;&gt;&lt;font style=&quot;font-size: 13px;&quot;&gt;Categoria&lt;br style=&quot;font-size: 13px;&quot;&gt;&lt;/font&gt;&lt;/span&gt;" style="whiteSpace=wrap;html=1;align=center;fillColor=#dae8fc;strokeColor=#6c8ebf;fontStyle=1;fontFamily=jetbrainsmono nerd font;fontSize=13;verticalAlign=middle;strokeWidth=2;fontColor=#1A1A1A;" vertex="1" parent="1">
                    <mxGeometry x="120" y="522.5" width="100" height="40" as="geometry"/>
                </mxCell>
                <mxCell id="196" value="1" style="edgeStyle=orthogonalEdgeStyle;html=1;labelBackgroundColor=#FFCCE6;labelBorderColor=#1A1A1A;strokeColor=#1A1A1A;fontColor=#1A1A1A;" edge="1" parent="1" source="191" target="190">
                    <mxGeometry relative="1" as="geometry"/>
                </mxCell>
                <mxCell id="191" value="&lt;span style=&quot;font-family: &amp;quot;jetbrainsmono nerd font&amp;quot;; font-weight: 700;&quot;&gt;tiene&lt;/span&gt;" style="shape=rhombus;perimeter=rhombusPerimeter;whiteSpace=wrap;html=1;align=center;fontSize=13;fillColor=#f8cecc;strokeColor=#b85450;strokeWidth=2;fontColor=#1A1A1A;" vertex="1" parent="1">
                    <mxGeometry x="15" y="441.25" width="70" height="47.5" as="geometry"/>
                </mxCell>
                <mxCell id="197" value="id" style="ellipse;whiteSpace=wrap;html=1;align=center;fontStyle=5;labelBackgroundColor=#FFFFFF;strokeWidth=1;fontSize=11;fontColor=#333333;fillColor=#f5f5f5;strokeColor=#007FFF;" vertex="1" parent="1">
                    <mxGeometry x="210" y="457.5" width="80" height="30" as="geometry"/>
                </mxCell>
                <mxCell id="199" value="nombre" style="ellipse;whiteSpace=wrap;html=1;align=center;labelBackgroundColor=#FFFFFF;strokeWidth=1;fontSize=11;fontColor=#333333;fillColor=#f5f5f5;strokeColor=#666666;fontStyle=1" vertex="1" parent="1">
                    <mxGeometry x="250" y="495" width="60" height="30" as="geometry"/>
                </mxCell>
                <mxCell id="202" value="&lt;span style=&quot;border-bottom: 1px dotted&quot;&gt;&lt;font size=&quot;1&quot; style=&quot;&quot;&gt;&lt;span style=&quot;font-size: 11px;&quot;&gt;id:categoria&lt;/span&gt;&lt;/font&gt;&lt;br&gt;&lt;/span&gt;" style="ellipse;whiteSpace=wrap;html=1;align=center;labelBackgroundColor=#FFFFFF;strokeWidth=1;fontSize=11;fontColor=#000000;fillColor=#FFFFFF;gradientColor=none;strokeColor=#FF0080;fontStyle=0" vertex="1" parent="1">
                    <mxGeometry x="-312.5" y="360" width="85" height="30" as="geometry"/>
                </mxCell>
                <mxCell id="204" value="precio" style="ellipse;whiteSpace=wrap;html=1;align=center;labelBackgroundColor=#FFFFFF;strokeWidth=1;fontSize=11;fontColor=#000000;fillColor=#f5f5f5;strokeColor=#000000;fontStyle=1" vertex="1" parent="1">
                    <mxGeometry x="220" y="1022.5" width="60" height="30" as="geometry"/>
                </mxCell>
                <mxCell id="206" value="1" style="html=1;exitX=0.25;exitY=0;exitDx=0;exitDy=0;labelBackgroundColor=#E5CCFF;labelBorderColor=#6C8EBF;strokeColor=#1A1A1A;strokeWidth=1;fontSize=11;fontColor=#1A1A1A;entryX=1;entryY=0.5;entryDx=0;entryDy=0;edgeStyle=orthogonalEdgeStyle;" edge="1" parent="1" target="212" source="6">
                    <mxGeometry relative="1" as="geometry">
                        <mxPoint x="-640" y="434.5" as="sourcePoint"/>
                        <mxPoint x="-460" y="330" as="targetPoint"/>
                    </mxGeometry>
                </mxCell>
                <mxCell id="207" style="edgeStyle=orthogonalEdgeStyle;html=1;entryX=0.5;entryY=1;entryDx=0;entryDy=0;labelBackgroundColor=#E5CCFF;labelBorderColor=#6C8EBF;strokeColor=#007FFF;strokeWidth=1;fontSize=11;fontColor=#1A1A1A;exitX=0.5;exitY=0;exitDx=0;exitDy=0;" edge="1" parent="1" source="209" target="210">
                    <mxGeometry relative="1" as="geometry">
                        <mxPoint x="-255" y="240" as="sourcePoint"/>
                    </mxGeometry>
                </mxCell>
                <mxCell id="208" style="edgeStyle=orthogonalEdgeStyle;html=1;strokeColor=#FF0080;fontColor=#FF0080;" edge="1" parent="1" source="209" target="213">
                    <mxGeometry relative="1" as="geometry"/>
                </mxCell>
                <mxCell id="209" value="galeria_equipo" style="whiteSpace=wrap;html=1;align=center;fillColor=#dae8fc;strokeColor=#6c8ebf;fontStyle=1;fontFamily=jetbrainsmono nerd font;fontSize=13;verticalAlign=middle;strokeWidth=2;fontColor=#1A1A1A;" vertex="1" parent="1">
                    <mxGeometry x="-475" y="245" width="135" height="45" as="geometry"/>
                </mxCell>
                <mxCell id="210" value="id_galeriaLocal" style="ellipse;whiteSpace=wrap;html=1;align=center;fontStyle=5;labelBackgroundColor=#FFFFFF;strokeWidth=1;fontSize=11;fontColor=#333333;fillColor=#f5f5f5;strokeColor=#007FFF;" vertex="1" parent="1">
                    <mxGeometry x="-375" y="190" width="126" height="30" as="geometry"/>
                </mxCell>
                <mxCell id="211" value="N" style="html=1;entryX=0.5;entryY=1;entryDx=0;entryDy=0;labelBackgroundColor=#E5CCFF;labelBorderColor=#6C8EBF;strokeColor=#1A1A1A;strokeWidth=1;fontSize=11;fontColor=#1A1A1A;exitX=0;exitY=0.5;exitDx=0;exitDy=0;edgeStyle=orthogonalEdgeStyle;" edge="1" parent="1" source="212" target="209">
                    <mxGeometry relative="1" as="geometry">
                        <mxPoint x="-480" y="310" as="sourcePoint"/>
                    </mxGeometry>
                </mxCell>
                <mxCell id="212" value="&lt;span style=&quot;font-family: &amp;quot;jetbrainsmono nerd font&amp;quot;; font-weight: 700;&quot;&gt;posee&lt;/span&gt;" style="shape=rhombus;perimeter=rhombusPerimeter;whiteSpace=wrap;html=1;align=center;fontSize=13;fillColor=#f8cecc;strokeColor=#b85450;strokeWidth=2;fontColor=#1A1A1A;" vertex="1" parent="1">
                    <mxGeometry x="-280" y="245" width="100" height="60" as="geometry"/>
                </mxCell>
                <mxCell id="213" value="&lt;span style=&quot;border-bottom: 1px dotted&quot;&gt;&lt;font size=&quot;1&quot; style=&quot;&quot;&gt;&lt;span style=&quot;font-size: 11px;&quot;&gt;id_equipo&lt;/span&gt;&lt;/font&gt;&lt;br&gt;&lt;/span&gt;" style="ellipse;whiteSpace=wrap;html=1;align=center;labelBackgroundColor=#FFFFFF;strokeWidth=1;fontSize=11;fontColor=#000000;fillColor=#FFFFFF;gradientColor=none;strokeColor=#FF0080;fontStyle=0" vertex="1" parent="1">
                    <mxGeometry x="-470" y="190" width="70" height="30" as="geometry"/>
                </mxCell>
            </root>
        </mxGraphModel>
    </diagram>
</mxfile>